<svg xmlns="http://www.w3.org/2000/svg" viewBox="0 0 798.33 220.76"><defs><style>.cls-1{fill:#8126b5;}.cls-2{fill:#fff;}</style></defs><title>Asset 34logo</title><g id="Layer_2" data-name="Layer 2"><g id="Layer_1-2" data-name="Layer 1"><circle class="cls-1" cx="110.38" cy="110.38" r="110.38"/><circle class="cls-2" cx="110.38" cy="110.38" r="93.47"/><circle class="cls-1" cx="110.38" cy="110.38" r="69.07"/><path class="cls-2" d="M134.9,89.21l-24.53,24.53-24.5-24.5a11.41,11.41,0,0,0-16.06,0l0,0a11.44,11.44,0,0,0,0,16.08l32.53,32.53,0,0a11.4,11.4,0,0,0,16,0h0L151,105.27a11.39,11.39,0,0,0,0-16l0,0A11.4,11.4,0,0,0,134.9,89.21Z"/><path class="cls-2" d="M305,174.47a53.92,53.92,0,0,1-28.67-7.65q-12.53-7.64-16.14-19.75l25.48-7.86q1.06,3.19,6.48,5.84A28.86,28.86,0,0,0,305,147.71a29.52,29.52,0,0,0,10-1.59,20.32,20.32,0,0,0,6.9-3.82q2.44-2.23,2.44-3.93,0-2.33-3.82-5.1a23.83,23.83,0,0,0-10-3.82l-7.22-1.27-8.71-1.7q-14.44-2.76-23.57-12t-9.13-21.13a28.55,28.55,0,0,1,5.73-17.2,39.26,39.26,0,0,1,15.61-12.42A51.25,51.25,0,0,1,305,59.16a49.89,49.89,0,0,1,25.8,6.69q11.36,6.69,15.4,17.52l-25.06,9.34q-.85-2.33-5.41-4.57a26.58,26.58,0,0,0-19.11-.85,21.24,21.24,0,0,0-5.84,3.08q-2.13,1.7-2.12,3,0,1.49,2.76,3.5a19.94,19.94,0,0,0,7.22,3.08l1.49.42a20.32,20.32,0,0,0,2.65.53l4.57.74,7.86,1.27q15.93,3,25.91,12.74t10,22.72A29.92,29.92,0,0,1,345,156.63a41.86,41.86,0,0,1-16.67,13.06c-7,3.19-10.55,3.72-10.55,3.72S313.53,174.47,305,174.47Z"/><path class="cls-2" d="M368.63,47.37a14.31,14.31,0,0,1-4.35-10.51,14.86,14.86,0,1,1,29.73,0,14.87,14.87,0,0,1-25.38,10.51Zm-2.87,13.7h26.76V172.55H365.76Z"/><path class="cls-2" d="M484.26,65.84a48.4,48.4,0,0,1,18.05,18.37,51.05,51.05,0,0,1,6.58,25.48v62.86H482.13V109.7a23.46,23.46,0,0,0-6.58-17,21.85,21.85,0,0,0-16.35-6.8A21.5,21.5,0,0,0,443,92.71a23.65,23.65,0,0,0-6.48,17v62.86H409.72V61.07h26.76v3.61a50.25,50.25,0,0,1,22.72-5.52A48.85,48.85,0,0,1,484.26,65.84Z"/><path class="cls-2" d="M631.85,61.07V169.58a47.16,47.16,0,0,1-7.54,26.12,52.41,52.41,0,0,1-20.6,18.37,66.7,66.7,0,0,1-57.34.42,52.21,52.21,0,0,1-20.49-17.31l21.87-15.08a27.19,27.19,0,0,0,11.15,8.71A37.75,37.75,0,0,0,574.51,194q13.16,0,21.87-6.9t8.71-17.52v-3.4A53.55,53.55,0,0,1,576,174.47a54.4,54.4,0,0,1-28.35-7.65A55.53,55.53,0,0,1,527.37,146a58.13,58.13,0,0,1-7.43-29.09,58.72,58.72,0,0,1,7.43-29.2A55.34,55.34,0,0,1,547.65,66.8,54.4,54.4,0,0,1,576,59.16a53.55,53.55,0,0,1,29.09,8.28V61.07Zm-41.09,82.61a28.46,28.46,0,0,0,10.51-11.15,32.45,32.45,0,0,0,3.82-15.61,32.89,32.89,0,0,0-3.82-15.82,28.5,28.5,0,0,0-10.51-11.15,28.06,28.06,0,0,0-14.76-4,27.53,27.53,0,0,0-20.92,8.92q-8.39,8.92-8.39,22.09t8.39,22A27.68,27.68,0,0,0,576,147.71,28,28,0,0,0,590.76,143.67Z"/><path class="cls-2" d="M676.44,172.55H649.68V23.9h26.76Z"/><path class="cls-2" d="M745.67,174.47a54.4,54.4,0,0,1-28.35-7.65A55.53,55.53,0,0,1,697,146a58.13,58.13,0,0,1-7.43-29.09,61.24,61.24,0,0,1,7.11-29.41,53.25,53.25,0,0,1,19.54-20.81,54.71,54.71,0,0,1,55.43,0,53.27,53.27,0,0,1,19.54,20.81,61.28,61.28,0,0,1,7.11,29.41v13.38H719.12a28.56,28.56,0,0,0,10.51,12.64,28.1,28.1,0,0,0,16,4.78,28.55,28.55,0,0,0,11.68-2.44,28,28,0,0,0,9.56-6.9l20,17.84a55.31,55.31,0,0,1-41.2,18.26Zm-27-70.93H769a30.21,30.21,0,0,0-9.45-12.74q-6.27-4.88-15.61-4.88T728.25,90.8A29.84,29.84,0,0,0,718.7,103.54Z"/></g></g></svg>